HIERARCHY
ROOT RootJoint
{
    OFFSET   0.000000   0.000000   0.000000
    CHANNELS 6 Xposition Yposition Zposition Xrotation Yrotation Zrotation
    JOINT pelvis_lowerback
    {
        OFFSET   0.000000   0.093605   0.000000
        CHANNELS 3 Xrotation Yrotation Zrotation
        JOINT lowerback_torso
        {
            OFFSET   0.000000   0.100000   0.000000
            CHANNELS 3 Xrotation Yrotation Zrotation
            JOINT torso_head
            {
                OFFSET   0.000000   0.282350   0.000000
                CHANNELS 3 Xrotation Yrotation Zrotation
                End Site
                {
                    OFFSET   0.000000   0.192650   0.000000
                }
            }
            JOINT rTorso_Clavicle
            {
                OFFSET  -0.001000   0.157500   0.000000
                CHANNELS 3 Xrotation Yrotation Zrotation
                JOINT rShoulder
                {
                    OFFSET  -0.117647   0.000000   0.000000
                    CHANNELS 3 Xrotation Yrotation Zrotation
                    JOINT rElbow
                    {
                        OFFSET  -0.245000   0.000000   0.000000
                        CHANNELS 3 Xrotation Yrotation Zrotation
                        JOINT rWrist
                        {
                            OFFSET  -0.240000   0.000000   0.000000
                            CHANNELS 3 Xrotation Yrotation Zrotation
                            End Site
                            {
                                OFFSET  -0.116353  -0.002500   0.000000
                            }
                        }
                    }
                }
            }
            JOINT lTorso_Clavicle
            {
                OFFSET   0.001000   0.157500   0.000000
                CHANNELS 3 Xrotation Yrotation Zrotation
                JOINT lShoulder
                {
                    OFFSET   0.117647   0.000000   0.000000
                    CHANNELS 3 Xrotation Yrotation Zrotation
                    JOINT lElbow
                    {
                        OFFSET   0.245000   0.000000   0.000000
                        CHANNELS 3 Xrotation Yrotation Zrotation
                        JOINT lWrist
                        {
                            OFFSET   0.240000   0.000000   0.000000
                            CHANNELS 3 Xrotation Yrotation Zrotation
                            End Site
                            {
                                OFFSET   0.116353  -0.002500   0.000000
                            }
                        }
                    }
                }
            }
        }
    }
    JOINT rHip
    {
        OFFSET  -0.100000  -0.051395   0.000000
        CHANNELS 3 Xrotation Yrotation Zrotation
        JOINT rKnee
        {
            OFFSET   0.000000  -0.410000   0.000000
            CHANNELS 3 Xrotation Yrotation Zrotation
            JOINT rAnkle
            {
                OFFSET   0.000000  -0.390000   0.000000
                CHANNELS 3 Xrotation Yrotation Zrotation
                JOINT rToeJoint
                {
                    OFFSET   0.000000  -0.050000   0.130000
                    CHANNELS 3 Xrotation Yrotation Zrotation
                    End Site
                    {
                        OFFSET  -0.010000   0.002000   0.060000
                    }
                }
            }
        }
    }
    JOINT lHip
    {
        OFFSET   0.100000  -0.051395   0.000000
        CHANNELS 3 Xrotation Yrotation Zrotation
        JOINT lKnee
        {
            OFFSET   0.000000  -0.410000   0.000000
            CHANNELS 3 Xrotation Yrotation Zrotation
            JOINT lAnkle
            {
                OFFSET   0.000000  -0.390000   0.000000
                CHANNELS 3 Xrotation Yrotation Zrotation
                JOINT lToeJoint
                {
                    OFFSET   0.000000  -0.050000   0.130000
                    CHANNELS 3 Xrotation Yrotation Zrotation
                    End Site
                    {
                        OFFSET   0.010000   0.002000   0.060000
                    }
                }
            }
        }
    }
}
MOTION
Frames: 17
Frame Time:   0.008333
 -2.501153   0.927314   4.621578   1.870910 -21.223100   1.979788  14.298332   2.971372   0.760075  -4.246997  -0.781454  -0.431697  -7.270962   0.893549  -1.769951  -8.446535  32.560666   0.806944 -32.037971  27.649591  36.492525   0.000988  43.365780  -0.000663  -3.327748   4.026338 -20.179505 -11.463768 -33.138548  -2.231286 -29.702137 -15.694010 -38.346919   0.000866 -47.376378  -0.003883  -7.985667  -4.951840  26.381744  -3.936548  -4.328362  -3.634885  13.344677  -0.000045   0.000063  -4.542619  -7.205028   3.031016  -9.829591   0.000013   0.000043  -5.587833   0.339820   2.340381   1.353967  -0.000059   0.000051   7.799926   5.741635   0.289978  -7.821628   0.000091  -0.000006
 -2.501084   0.927340   4.621782   1.933884 -21.279340   2.030407  14.164059   2.952055   0.767844  -4.249894  -0.781365  -0.431563  -7.225028   0.854949  -1.830824  -8.349514  32.418529   0.844111 -31.909234  27.566314  36.763172   0.000775  43.356952  -0.000538  -3.387727   4.211666 -20.255946 -11.445499 -32.935685  -2.349145 -29.678153 -15.486873 -38.756588   0.000918 -47.566768  -0.003683  -8.083435  -5.149671  26.536987  -3.956180  -4.288286  -3.670100  13.269290  -0.000042   0.000064  -4.544559  -7.176950   3.032548  -9.771394   0.000012   0.000040  -5.618360   0.336967   2.306034   1.336613  -0.000049   0.000050   7.801215   5.807900   0.289556  -7.832036   0.000073  -0.000005
 -2.501027   0.927356   4.622013   1.976663 -21.341093   2.076298  14.029603   2.933978   0.775479  -4.238177  -0.779361  -0.430939  -7.194265   0.818530  -1.887861  -8.215430  32.255779   0.895903 -31.756981  27.459365  37.027799   0.000575  43.334544  -0.000453  -3.467198   4.338017 -20.330290 -11.384603 -32.712355  -2.475384 -29.622260 -15.263972 -39.154066   0.000977 -47.733024  -0.003421  -8.197019  -5.304255  26.690913  -3.958426  -4.245713  -3.708444  13.202796  -0.000040   0.000064  -4.555939  -7.145609   3.035004  -9.710216   0.000011   0.000039  -5.634488   0.338389   2.269868   1.337003  -0.000039   0.000040   7.789758   5.874631   0.286114  -7.842935   0.000058  -0.000004
 -2.500961   0.927365   4.622195   2.005783 -21.404796   2.116975  13.909059   2.916897   0.784547  -4.210890  -0.777556  -0.429323  -7.172172   0.784661  -1.940829  -8.066813  32.083581   0.951102 -31.595633  27.341798  37.276872   0.000398  43.304884  -0.000393  -3.561183   4.411580 -20.393512 -11.303925 -32.483190  -2.600107 -29.550506 -15.037798 -39.528581   0.001022 -47.879574  -0.003119  -8.327217  -5.409780  26.840656  -3.956222  -4.206563  -3.745757  13.147488  -0.000036   0.000065  -4.570807  -7.116940   3.036902  -9.648196   0.000010   0.000033  -5.645154   0.342783   2.234870   1.346948  -0.000030   0.000027   7.776949   5.939632   0.281803  -7.855310   0.000046  -0.000003
 -2.500857   0.927356   4.622314   2.025765 -21.464969   2.157634  13.805200   2.898403   0.795008  -4.170373  -0.778108  -0.427405  -7.153730   0.753053  -1.990390  -7.914673  31.908431   1.005487 -31.432889  27.220502  37.508473   0.000247  43.271357  -0.000349  -3.663611   4.448773 -20.449723 -11.214573 -32.256456  -2.720058 -29.471330 -14.815649 -39.879221   0.001053 -48.010642  -0.002798  -8.467569  -5.479998  26.987048  -3.955073  -4.166990  -3.782217  13.101685  -0.000030   0.000061  -4.581576  -7.088205   2.966570  -9.589781   0.000043   0.000036  -5.654416   0.347249   2.195463   1.360889  -0.000023   0.000014   7.764718   6.000565   0.277493  -7.864474   0.000036  -0.000003
 -2.500737   0.927340   4.622340   2.042875 -21.529111   2.191317  13.718156   2.882751   0.808705  -4.120314  -0.778103  -0.422306  -7.137448   0.723630  -2.036032  -7.764612  31.736079   1.059006 -31.273433  27.100084  37.724027   0.000124  43.236289  -0.000316  -3.769755   4.463103 -20.502685 -11.122492 -32.035765  -2.833951 -29.389320 -14.601031 -40.206079   0.001071 -48.129157  -0.002478  -8.612238  -5.527207  27.130939  -3.956345  -4.134389  -3.816686  13.056173  -0.000026   0.000063  -4.607596  -7.066467   2.980303  -9.503675   0.000026   0.000020  -5.666421   0.354846   2.163954   1.374803  -0.000017   0.000004   7.754024   6.060723   0.273262  -7.867448   0.000029  -0.000002
 -2.500601   0.927317   4.622275   2.057864 -21.593728   2.222088  13.647563   2.867574   0.822436  -4.062298  -0.778703  -0.415830  -7.122081   0.696112  -2.078252  -7.619255  31.569373   1.110832 -31.119492  26.982972  37.924791   0.000024  43.200947  -0.000288  -3.877016   4.462259 -20.553369 -11.031137 -31.824339  -2.941292 -29.307369 -14.396315 -40.510673   0.001077 -48.237187  -0.002172  -8.757813  -5.559002  27.271096  -3.961508  -4.103575  -3.847159  13.010585  -0.000022   0.000065  -4.633217  -7.044295   2.988571  -9.409222   0.000014   0.000006  -5.682506   0.363950   2.136123   1.388178  -0.000013  -0.000004   7.748586   6.119042   0.268915  -7.868393   0.000023  -0.000002
 -2.500587   0.927213   4.622511   2.075980 -21.692977   2.255518  13.476089   2.867938   0.815876  -4.007950  -0.758408  -0.391844  -7.056113   0.648844  -2.118811  -7.492190  31.331110   1.279896 -30.864249  26.739841  38.224959  -0.000370  43.000159  -0.000767  -3.914134   4.746699 -20.648619 -10.924401 -31.503539  -3.102979 -29.020114 -14.176578 -40.903595   0.000731 -48.194411  -0.001682  -8.792248  -5.839616  27.395645  -3.955077  -4.055988  -3.878233  12.979726  -0.000017   0.000066  -4.712584  -7.009234   2.992224  -9.276431   0.000003  -0.000013  -5.687686   0.370189   2.108112   1.446907  -0.000006  -0.000052   7.625321   6.209108   0.297077  -7.777328  -0.000001  -0.000009
 -2.500597   0.927097   4.622794   2.069318 -21.793760   2.281976  13.307825   2.867596   0.807894  -3.933788  -0.738065  -0.368174  -7.013117   0.604635  -2.156366  -7.313166  31.052993   1.458010 -30.575349  26.462268  38.509472  -0.000753  42.786152  -0.001203  -3.988953   4.922938 -20.754530 -10.757472 -31.147064  -3.268808 -28.698108 -13.924896 -41.281747   0.000382 -48.130456  -0.001260  -8.865418  -6.027599  27.507248  -3.929714  -4.006566  -3.912338  12.967931  -0.000014   0.000059  -4.803919  -6.970422   2.995058  -9.148330  -0.000004  -0.000023  -5.672661   0.378709   2.078923   1.523183   0.000001  -0.000105   7.484224   6.296448   0.319269  -7.681184  -0.000017  -0.000015
 -2.500599   0.926979   4.623020   2.048980 -21.891129   2.303047  13.159653   2.865566   0.801369  -3.839619  -0.720603  -0.345773  -6.981826   0.563624  -2.191200  -7.112153  30.755625   1.631456 -30.275149  26.172931  38.772190  -0.001091  42.571362  -0.001535  -4.091464   5.010444 -20.858710 -10.564794 -30.777600  -3.431174 -28.366928 -13.661117 -41.636185   0.000062 -48.055936  -0.000914  -8.973638  -6.133646  27.624140  -3.900774  -3.959135  -3.945812  12.968739  -0.000011   0.000047  -4.896025  -6.932954   2.996033  -9.024519  -0.000008  -0.000030  -5.652579   0.387901   2.050717   1.606218   0.000005  -0.000149   7.346806   6.378988   0.338582  -7.589648  -0.000026  -0.000020
 -2.500579   0.926858   4.623149   2.022899 -21.985004   2.320181  13.035565   2.862294   0.796583  -3.729162  -0.705940  -0.324169  -6.955629   0.525432  -2.223535  -6.904587  30.453122   1.796736 -29.975951  25.883791  39.013906  -0.001375  42.361178  -0.001759  -4.210358   5.039869 -20.961878 -10.363029 -30.409060  -3.586713 -28.038884 -13.397154 -41.966541  -0.000215 -47.976755  -0.000644  -9.103567  -6.184913  27.748128  -3.875171  -3.914351  -3.976416  12.974880  -0.000009   0.000035  -4.986732  -6.897711   2.994142  -8.897895  -0.000010  -0.000036  -5.634775   0.397395   2.025118   1.689122   0.000008  -0.000181   7.218251   6.457061   0.356640  -7.500234  -0.000033  -0.000023
 -2.500531   0.926731   4.623169   1.995717 -22.075473   2.334454  12.935350   2.857982   0.793503  -3.606364  -0.693796  -0.303065  -6.931659   0.489785  -2.253562  -6.698381  30.154637   1.953204 -29.684490  25.601822  39.237080  -0.001604  42.158638  -0.001886  -4.337903   5.032629 -21.064116 -10.161019 -30.050173  -3.734641 -27.720501 -13.139994 -42.274598  -0.000449 -47.896584  -0.000443  -9.245325  -6.201337  27.876156  -3.855649  -3.871634  -4.003295  12.981535  -0.000007   0.000025  -5.076326  -6.864133   2.989017  -8.763039  -0.000011  -0.000043  -5.622561   0.406888   2.002833   1.767894   0.000009  -0.000201   7.099270   6.530898   0.374027  -7.409436  -0.000039  -0.000025
 -2.500453   0.926596   4.623080   1.969893 -22.162336   2.346559  12.857270   2.852656   0.792073  -3.474599  -0.684003  -0.282309  -6.908693   0.456473  -2.281456  -6.497665  29.865889   2.101128 -29.404399  25.331041  39.444247  -0.001781  41.965382  -0.001932  -4.469169   5.002526 -21.164333  -9.963656 -29.706299  -3.875172 -27.415268 -12.893668 -42.562575  -0.000638 -47.817659  -0.000298  -9.392549  -6.195860  28.004543  -3.843002  -3.830193  -4.026298  12.986034  -0.000006   0.000018  -5.165375  -6.831429   2.980742  -8.617251  -0.000011  -0.000046  -5.617214   0.416040   1.984030   1.840446   0.000009  -0.000210   6.989391   6.600530   0.390943  -7.314883  -0.000044  -0.000028
 -2.500559   0.926356   4.623354   1.943799 -22.277441   2.339262  12.700364   2.854931   0.790877  -3.394017  -0.633903  -0.251722  -6.836503   0.401388  -2.279104  -6.356802  29.436073   2.384624 -29.001062  24.872838  39.759848  -0.002183  41.443443  -0.004036  -4.469320   5.420142 -21.176153  -9.772920 -29.200909  -4.083966 -26.862222 -12.627589 -42.901646  -0.001821 -47.419330   0.000186  -9.328182  -6.556842  27.965040  -3.801881  -3.753404  -4.024544  12.997683  -0.000005   0.000011  -5.305891  -6.800710   2.968332  -8.442648  -0.000012  -0.000037  -5.596600   0.417592   1.989115   1.970974   0.000007  -0.000295   6.711793   6.682612   0.455620  -7.075885  -0.000151  -0.000095
 -2.500716   0.926103   4.623714   1.896378 -22.395160   2.325333  12.544383   2.857756   0.785235  -3.295243  -0.583464  -0.221662  -6.793593   0.350560  -2.274789  -6.148049  28.934385   2.663240 -28.550797  24.362019  40.037263  -0.002485  40.910190  -0.005816  -4.539864   5.646502 -21.230094  -9.507346 -28.628688  -4.282678 -26.271398 -12.304068 -43.207850  -0.002648 -47.004940   0.000744  -9.339505  -6.756494  27.945954  -3.742561  -3.677377  -4.024408  13.028024  -0.000006  -0.000002  -5.459380  -6.767021   2.955833  -8.274826  -0.000012  -0.000030  -5.553819   0.417871   1.995455   2.114959   0.000001  -0.000381   6.414706   6.758366   0.512109  -6.831149  -0.000225  -0.000168
 -2.500874   0.925856   4.624033   1.837842 -22.509717   2.308281  12.408630   2.859421   0.778577  -3.174011  -0.537027  -0.194431  -6.763738   0.303532  -2.270732  -5.907840  28.398708   2.925053 -28.085995  23.835407  40.280718  -0.002735  40.387804  -0.007097  -4.658885   5.730671 -21.313485  -9.209587 -28.028204  -4.468207 -25.676884 -11.955147 -43.482479  -0.003214 -46.594542   0.001230  -9.410835  -6.833027  27.973929  -3.681147  -3.604212  -4.025294  13.070397  -0.000007  -0.000016  -5.611517  -6.733240   2.942776  -8.115555  -0.000012  -0.000024  -5.506000   0.416452   2.002032   2.262212  -0.000007  -0.000450   6.128319   6.827239   0.563507  -6.600192  -0.000272  -0.000228
 -2.501011   0.925615   4.624261   1.776072 -22.620140   2.289666  12.298213   2.859915   0.772037  -3.033871  -0.494891  -0.169421  -6.738890   0.259770  -2.267035  -5.655944  27.854767   3.169150 -27.624580  23.312482  40.497356  -0.002966  39.884600  -0.007898  -4.806377   5.725482 -21.417208  -8.901448 -27.424976  -4.641014 -25.095374 -11.600221 -43.731190  -0.003620 -46.196455   0.001575  -9.519093  -6.831335  28.039293  -3.624939  -3.534179  -4.025218  13.116787  -0.000008  -0.000028  -5.758894  -6.700153   2.928153  -7.957735  -0.000011  -0.000019  -5.461854   0.414048   2.009833   2.406248  -0.000015  -0.000498   5.859748   6.890663   0.611607  -6.381833  -0.000302  -0.000274
